<svg version="1.1" id="Layer_1" xmlns="http://www.w3.org/2000/svg" xmlns:xlink="http://www.w3.org/1999/xlink" x="0px" y="0px"
	 width="100%" viewBox="0 0 512 512" enable-background="new 0 0 512 512" xml:space="preserve">
<path fill="#000000" opacity="1.000000" stroke="none" 
	d="
M302.000000,513.000000 
	C202.690781,513.000000 103.881531,512.980835 5.072423,513.084473 
	C1.807701,513.087891 0.894267,512.646667 0.896788,509.074219 
	C1.015292,341.115265 1.016687,173.156235 0.892496,5.197323 
	C0.889724,1.449508 1.835981,0.912667 5.300733,0.914682 
	C173.093079,1.012274 340.885468,1.011378 508.677826,0.919594 
	C512.084534,0.917731 513.114746,1.368712 513.111816,5.175861 
	C512.982422,173.134781 512.985291,341.093811 513.100830,509.052765 
	C513.103271,512.581360 512.260071,513.094238 508.948975,513.088562 
	C440.132812,512.971069 371.316376,513.000000 302.000000,513.000000 
z"/>
<path fill="#F9F9F9" opacity="1.000000" stroke="none" 
	d="
M155.711823,184.381821 
	C163.208389,182.063812 170.649048,183.623993 178.018097,183.212448 
	C179.347397,183.138199 179.467804,184.333267 179.509338,185.350052 
	C179.550095,186.348404 179.529419,187.349411 179.529434,188.349243 
	C179.530029,233.676712 179.483398,279.004303 179.614395,324.331421 
	C179.625412,328.141541 178.820663,329.688293 174.765366,329.258301 
	C170.649307,328.821991 164.919174,330.556793 162.758469,328.431091 
	C160.632294,326.339355 162.050140,320.596893 161.995651,316.455261 
	C161.535278,281.454071 162.045334,246.491455 166.106125,211.665359 
	C166.604706,207.389481 167.502182,203.123322 166.976761,198.392761 
	C165.413193,199.358398 165.407166,200.842529 165.011169,202.067215 
	C158.626434,221.812347 152.205582,241.546143 145.938889,261.328735 
	C144.994034,264.311462 143.636154,265.595520 140.384644,265.245941 
	C135.456451,264.716095 129.288345,267.168945 125.858917,264.306244 
	C122.724792,261.690033 122.442184,255.636063 120.946404,251.082840 
	C115.660294,234.991760 110.394043,218.894180 105.116302,202.800354 
	C104.633507,201.328094 104.608208,199.537949 102.407623,198.740677 
	C105.223885,221.945541 106.857582,244.889297 107.299561,267.891083 
	C107.670845,287.213501 107.428452,306.547211 107.584236,325.874908 
	C107.605354,328.494232 106.868065,329.388947 104.226311,329.231750 
	C99.585716,328.955566 93.577202,330.644073 90.709129,328.328949 
	C88.459152,326.512787 90.002968,319.895844 90.000725,315.411621 
	C89.979477,272.917114 90.047089,230.422409 89.890991,187.928467 
	C89.876404,183.955566 90.924019,182.786270 94.822586,183.068405 
	C99.630112,183.416351 104.499344,183.400513 109.308655,183.065079 
	C112.579132,182.836975 113.952362,184.022812 114.884354,187.034607 
	C121.264893,207.653961 127.794250,228.227295 134.292557,248.810120 
	C134.533768,249.574203 134.949249,250.283264 135.600632,251.714920 
	C141.642227,228.717361 148.772430,206.794785 155.711823,184.381821 
z"/>
<path fill="#FAFAFA" opacity="1.000000" stroke="none" 
	d="
M217.563354,235.617172 
	C227.138351,221.098907 241.346603,217.299530 257.160034,217.221252 
	C261.463867,217.199936 265.767853,217.832047 269.985565,218.942581 
	C286.073456,223.178543 296.127258,234.335068 296.555298,250.928284 
	C297.203583,276.060638 296.777924,301.220215 296.883820,326.367920 
	C296.893097,328.570404 296.129395,329.426819 294.007965,329.181244 
	C293.843658,329.162262 293.669434,329.207764 293.509430,329.175507 
	C288.746613,328.214691 282.155945,331.930573 279.516113,327.307343 
	C277.368866,323.546783 279.079803,317.583221 278.795380,312.347595 
	C274.595428,322.702118 266.628235,328.078461 256.123322,330.109711 
	C246.121902,332.043579 236.208557,331.802155 226.688980,327.928802 
	C212.858139,322.301239 205.930695,308.824066 208.107162,292.381195 
	C209.931671,278.597260 220.743637,268.120117 235.466385,266.040985 
	C248.061874,264.262238 260.742706,265.313721 273.381348,265.265839 
	C277.508423,265.250183 279.789368,264.628876 278.842773,259.950745 
	C278.680908,259.150757 278.812714,258.289825 278.821014,257.457123 
	C278.913635,248.162857 277.293884,239.444672 267.563599,235.529358 
	C256.723969,231.167648 246.085403,231.992355 236.414047,239.156265 
	C234.803177,240.349487 233.163315,241.904129 232.857849,243.850357 
	C232.137955,248.437042 229.065826,248.450775 225.620941,248.193802 
	C224.461548,248.107285 223.290268,248.180115 222.124420,248.180115 
	C212.212341,248.180115 211.900208,247.691818 216.038849,238.604950 
	C216.451767,237.698349 216.915329,236.814835 217.563354,235.617172 
z"/>
<path fill="#FAFAFA" opacity="1.000000" stroke="none" 
	d="
M411.028168,219.156097 
	C414.829681,219.156097 418.152313,219.156097 421.727417,219.156097 
	C421.544373,221.786270 419.724396,223.417038 418.484497,225.244171 
	C408.400879,240.103683 398.298096,254.951584 388.012756,269.671417 
	C386.283630,272.146057 386.493469,273.785675 388.095917,276.090454 
	C400.143860,293.418945 412.082611,310.823395 424.689362,329.124268 
	C417.421631,329.124268 410.914215,329.172821 404.408325,329.093201 
	C402.576965,329.070801 402.220581,327.194611 401.470001,326.010712 
	C392.690765,312.163666 382.751801,299.057098 375.057617,283.988251 
	C366.597870,298.627747 356.962891,311.862732 348.186462,325.655823 
	C346.582703,328.176300 344.971161,329.406219 341.869354,329.253204 
	C336.460052,328.986298 331.028107,329.178864 324.791290,329.178864 
	C335.164734,314.133179 345.060181,299.820770 354.906677,285.474762 
	C357.819244,281.231232 362.690369,276.954529 362.818878,272.580017 
	C362.938171,268.520874 357.969269,264.281250 355.164673,260.173004 
	C346.912537,248.084839 338.599579,236.038071 330.380859,223.927277 
	C329.499084,222.627945 328.144836,221.494339 328.051971,219.159225 
	C334.230347,219.159225 340.314362,219.234421 346.394836,219.121964 
	C348.805603,219.077393 349.405396,220.893250 350.333527,222.377609 
	C358.421936,235.313873 367.303345,247.755051 374.761200,261.592987 
	C381.597961,249.362564 389.882141,238.322525 396.696564,226.405640 
	C400.070770,220.504990 404.068848,218.029770 411.028168,219.156097 
z"/>
<path fill="#020202" opacity="1.000000" stroke="none" 
	d="
M264.993530,278.706940 
	C269.771118,278.968811 275.333527,276.897186 277.991882,279.545074 
	C280.653778,282.196503 278.770569,287.761108 278.784485,292.038940 
	C278.830902,306.309418 269.512390,315.506012 253.743210,316.836853 
	C249.600204,317.186462 245.469543,317.053925 241.351517,316.112701 
	C230.830215,313.708008 225.181229,306.044067 225.973297,294.980530 
	C226.666840,285.293365 233.228165,279.288391 244.027374,278.854340 
	C250.840942,278.580444 257.671997,278.741150 264.993530,278.706940 
z"/>
</svg>